<svg xmlns="http://www.w3.org/2000/svg" version="1.1" xmlns:xlink="http://www.w3.org/1999/xlink" xmlns:svgjs="http://svgjs.dev/svgjs" width="100%" height="100%" viewBox="0 0 1000 600"><rect width="1000" height="600" x="0" y="0" fill="#533549"/><g><rect width="333.3333333333333" height="333.3333333333333" rx="13.333333333333334" ry="13.333333333333334" y="245.4248080562055" fill="#f6b042" transform="matrix(0.5600292775722585,0,0,0.5600292775722585,0,69.21668912780287)" x="223.20262145996094"/><path d="M418.6359956300096 404.32357133117705L435.8780628716036 423.7208969779703L365.203547667778 423.7208969779703L365.4130866793946 487.09148091973174L335.2394690066051 480.83524471575055L335.2394690066051 337.3010217583835L335.44900801822166 337.5105607700001L335.2394690066051 337.0914827467669L427.25702925080657 337.0914827467669L444.49909649240067 356.48880839356025L364.99400865616144 356.48880839356025L364.99400865616144 404.32357133117705L418.6359956300096 404.32357133117705Z " fill="#533549" transform="matrix(0.5600292775722585,0,0,0.5600292775722585,0,69.21668912780287)"/><path d="M639.8692831476094 337.0914821883336L665.1715043374218 342.77042516649146L665.1715043374218 486.68383657832413L639.8692831476094 481.00489360016627L639.8692831476094 337.0914821883336ZM756.6530907281433 435.067305351107L756.6530907281433 384.26606791778374L781.9553119179557 389.9168973168418L781.9553119179557 486.8806316320227L756.6530907281433 481.2016886538648L756.6530907281433 471.08080017793986Q740.4596691666634 487.69592542591664 726.6840154077656 486.68383657832413L726.6840154077656 486.68383657832413Q720.2178922148134 486.26213289182726 703.6308805459365 471.6992989181353Q687.0157552979597 457.1364649444433 686.0036664503673 451.4575219662854L686.0036664503673 451.4575219662854Q685.1883726564733 446.20028267462436 685.1883726564733 384.26606791778374L685.1883726564733 384.26606791778374L710.293798792587 389.9168973168418Q709.2817099449946 459.55423274702537 711.3058876401797 463.79938319109385L711.3058876401797 463.79938319109385Q715.3542430305496 469.4783261692517 723.5634081276887 467.45414847406676Q731.744459645728 465.4299707788818 741.7810073843535 455.89946746405246Q751.7894415438793 446.3970777283229 756.6530907281433 435.067305351107L756.6530907281433 435.067305351107ZM891.260907457945 397.8168130438832L891.260907457945 397.8168130438832L883.979490471099 408.33129162720525Q880.9432239283215 407.31920277961274 876.8948685379515 405.80106950822403Q872.8465131475815 404.28293623683527 870.625540398698 403.5800967593405Q868.3764540707147 402.8772572818457 865.7618912144341 402.06196348795174Q863.1192147790537 401.2466696940578 861.4042864539664 400.9655339030599Q859.6893581288791 400.65628453296216 858.2555655947897 400.65628453296216L858.2555655947897 400.65628453296216Q845.0984105760874 401.2466696940578 835.989610947755 417.664999888336L835.989610947755 417.664999888336Q827.3025150059193 433.43671776331905 829.3266927011043 449.43334427110045L829.3266927011043 449.43334427110045Q831.1540753425908 465.4299707788818 843.4959365673992 467.25735342036825L843.4959365673992 467.25735342036825Q857.8619754873927 469.2815311155532 881.955312775914 450.6422281723914L881.955312775914 450.6422281723914L885.8068731125854 455.1122872492583Q889.8552285029554 459.55423274702537 893.678675260527 464.2210868775907L893.678675260527 464.2210868775907L897.5302355971985 468.6630323753578Q889.630319870157 474.53877040721426 883.6702411010012 478.1654221110873Q877.7101623318455 481.8201873940602 871.4127206134922 484.1536144593429Q865.1433924742387 486.4870415246256 859.1833137050828 486.3745872082264Q853.1951213568273 486.26213289182726 846.9257932175738 483.8443650892452L846.9257932175738 483.8443650892452Q829.5234877548029 477.15333326349486 814.1453599872169 460.3695265409193L814.1453599872169 460.3695265409193Q805.0365603588845 450.2486380649944 804.1088122485913 436.38864356879714Q803.209177717398 422.5005354935002 808.9724614328552 410.58037795518857Q814.7357451483125 398.6321068377772 826.0936311046282 390.22614668693956Q837.4234034818443 381.82018653610186 850.7773535542452 381.82018653610186L850.7773535542452 381.82018653610186Q857.0466816934987 381.82018653610186 891.260907457945 397.8168130438832ZM924.6598394284972 409.7650841612946L924.4630443747988 409.7650841612946L913.5268621049798 391.3506898509312Q927.6961059712748 387.6959245679583 945.0140706967463 384.46286297148225Q962.3039218431181 381.2298013750062 966.773980919985 381.4265964287048Q971.215926417752 381.62339148240335 984.5698764901529 394.6680921847066Q997.9238265625539 407.7409064661096 1002.5906806931193 414.62873334555854L1002.5906806931193 414.62873334555854Q1004.2212682809072 417.04650114814063 1004.2212682809072 430.90649564433784Q1004.2212682809072 444.76649014053504 1003.7152238571109 462.59049928980284Q1003.2091794333147 480.41450843907063 1003.4059744870133 486.68383657832413L1003.4059744870133 486.68383657832413L978.3005483508994 480.80809854646776L978.497343404598 470.4904150168442Q962.1071267894195 486.8806316320227 951.789443259796 486.8806316320227L951.789443259796 486.8806316320227Q942.0621448912682 486.68383657832413 927.0776072310794 468.46623732165926Q912.1211831499902 450.2486380649944 912.1211831499902 442.34872233795295L912.1211831499902 442.34872233795295Q912.1211831499902 436.0793941986995 920.6114840381273 430.82215490703845Q929.1017849262644 425.53680203627766 941.3593054137734 422.6129898098993Q953.6168259012825 419.68917758352103 963.1192156370121 418.0585899957331Q972.6216053727417 416.4280024079452 979.312637198492 415.83761724684956L979.312637198492 415.83761724684956L979.5094322521904 410.3554693223902Q979.706227305889 400.65628453296216 969.191748722567 399.8409907390682L969.191748722567 399.8409907390682Q959.4644503540392 399.2224919988728 928.3146047114701 408.55620026000355L928.3146047114701 408.55620026000355L928.0896960786718 408.55620026000355L927.8929010249733 408.7529953137021L927.6961059712748 408.7529953137021L927.4993109175762 408.7529953137021L927.3025158638777 408.9497903674007L927.0776072310794 408.9497903674007L926.8808121773808 408.9497903674007L926.6840171236822 409.14658542109925L926.4872220699838 409.14658542109925L926.2904270162852 409.14658542109925L926.0655183834868 409.34338047479775L925.8687233297883 409.34338047479775L925.6719282760898 409.34338047479775L925.4751332223912 409.34338047479775L925.2783381686927 409.56828910759606L925.0534295358943 409.56828910759606L924.8566344821958 409.56828910759606L924.6598394284972 409.7650841612946ZM934.5839328507236 460.5663215946178L934.5839328507236 460.5663215946178Q936.4113154922102 463.4057930836968 941.4717597301726 464.2210868775907Q946.532203968135 465.00826709238487 956.7374331813594 461.46595612581115Q966.9707759736834 457.9236451592374 978.9190470910949 449.0397541637033L978.9190470910949 449.0397541637033L979.1158421447934 431.2157450144355Q925.6719282760898 446.79066783572 934.5839328507236 460.5663215946178ZM1099.7512100619988 390.73219111073576L1099.7512100619988 390.73219111073576L1097.5302373131153 401.66837338055467Q1077.878845522361 397.1983143036878 1071.6095173831075 398.01360809758177L1071.6095173831075 398.01360809758177Q1061.685423960881 399.2224919988728 1056.0345945618228 407.6284521497104Q1050.3556515836651 416.0344123005481 1051.986239171453 423.737532973891L1051.986239171453 423.737532973891Q1052.3798292788501 425.53680203627766 1061.291833853484 423.31582928739414Q1070.2038384281177 421.09485653851056 1080.71831701144 418.7614294732279Q1091.2609091738616 416.4280024079452 1094.2971757166392 418.0585899957331L1094.2971757166392 418.0585899957331Q1108.2415109501358 425.3400069825791 1113.1051601343997 437.28827809999046Q1117.9688093186637 449.2365492174019 1114.2297032983913 460.0602771708216Q1110.4905972781191 470.88400512424136 1098.9359162681048 478.78392085128274Q1087.4093488371902 486.68383657832413 1071.2159272757103 486.68383657832413L1071.2159272757103 486.68383657832413Q1057.8619772033094 486.68383657832413 1046.4197505096943 479.28996527507894Q1034.9775238160792 471.8960939718338 1019.5993960484932 457.1364649444433L1019.5993960484932 457.1364649444433L1023.2260477523662 450.2486380649944Q1037.0017015112642 460.5663215946178 1052.3798292788501 464.10863256119154Q1067.757957046436 467.65094352776526 1081.0275663815376 461.3816153885118Q1094.2971757166392 455.1122872492583 1098.7391212144062 438.300366947583L1098.7391212144062 438.300366947583Q1098.9359162681048 437.48507315368903 1096.9117385729198 437.68186820738754L1096.9117385729198 437.68186820738754Q1094.6907658240361 437.9067768401859 1085.7787612494024 440.324544642768L1085.7787612494024 440.324544642768Q1057.637068570511 447.8027566833125 1049.962061476268 444.76649014053504L1049.962061476268 444.76649014053504L1048.1346788347814 443.75440129294253Q1037.0017015112642 435.2641004048055 1030.1138746318152 425.1432119288806L1030.1138746318152 425.1432119288806Q1025.0534303938528 418.25538504943165 1025.9811785041459 410.58037795518857Q1026.880813035339 402.8772572818457 1031.1259634794078 396.49547482619306Q1035.371113923476 390.1136923705404 1043.889528390713 385.980996242871Q1052.3798292788501 381.82018653610186 1062.500717754775 381.82018653610186L1062.500717754775 381.82018653610186Q1065.5369842975524 381.82018653610186 1071.1034729593111 383.02907043739293Q1076.66996162107 384.26606791778374 1086.903304413394 387.18988014416203Q1097.1085336266183 390.1136923705404 1099.7512100619988 390.73219111073576ZM1162.303923559035 470.4904150168442L1162.303923559035 470.4904150168442Q1178.300550066816 478.5871257975842 1200.9600948212483 462.59049928980284L1200.9600948212483 462.59049928980284L1200.9600948212483 405.71672877092465Q1195.0843567893917 402.25875854165025 1184.5698782060695 401.04987464035923L1184.5698782060695 401.04987464035923Q1176.2763723716312 400.2345808464653 1168.3764566445898 409.4558347911969Q1160.4765409175484 418.6770887359285 1156.4281855271784 430.82215490703845Q1152.3798301368083 442.9672210781484 1153.5043733008001 454.80303787916057Q1154.6008028856918 466.6388546801728 1162.303923559035 470.4904150168442ZM1200.9600948212483 394.78054650110573L1200.9600948212483 337.0914821883336L1226.2623160110604 342.77042516649146Q1227.4711999123515 479.4024195914781 1226.2623160110604 480.6113034927692L1226.2623160110604 480.6113034927692Q1225.250227163468 480.80809854646776 1215.832178165038 482.94473055805184Q1206.4141291666076 485.05324899053625 1203.799566310327 485.47495267703306Q1201.1568898749465 485.8685427844302 1192.9758383569074 486.68383657832413Q1184.7666732597681 487.4991303722181 1180.0154783919033 486.68383657832413Q1175.2642835240385 485.8685427844302 1168.179661590891 483.95681940564435Q1161.0950396577437 482.0169824477587 1154.6008028856918 478.3903307438856L1154.6008028856918 478.3903307438856Q1143.0742354547774 472.0928890255324 1136.804907315524 462.9840893971999Q1130.5074655971707 453.8752897688675 1130.1138754897736 444.3729000331379Q1129.7202853823765 434.87051029740843 1132.334848238657 425.0307576124814Q1134.9775246740373 415.2191185066542 1140.7408083894948 407.03806698861484Q1146.504092104952 398.8289018914757 1153.082669614303 392.5595737522222Q1159.6612471236544 386.2902456129687 1166.9426641105006 383.53511486118913Q1174.2521946764462 380.80809768850935 1179.9030240755042 382.6354803299958L1179.9030240755042 382.6354803299958Q1182.5457005108847 383.45077412388974 1185.469512737263 384.9689073952785Q1188.421438542741 386.48704066666727 1190.3331619215269 387.6959245679583Q1192.2448853003127 388.9048084692493 1195.7871962668864 391.3506898509312Q1199.3295072334602 393.7684576535133 1200.9600948212483 394.78054650110573L1200.9600948212483 394.78054650110573ZM1273.0151980540138 440.5213396964665L1273.0151980540138 440.5213396964665L1318.9808998821727 409.14658542109925Q1304.389952329381 399.8409907390682 1294.1847231161566 402.25875854165025Q1283.9513803238326 404.70463992333214 1278.497345978473 414.90986913655644Q1273.0151980540138 425.1432119288806 1273.0151980540138 440.5213396964665ZM1293.4537700595622 448.42125542350794L1277.682052184579 459.94782285442244Q1283.3328815836371 466.8356497338713 1290.4175035167848 468.46623732165926Q1297.5021254499322 470.0687113303474 1305.3177004396741 466.52640036377363Q1313.1051618503163 462.9840893971999 1318.3624011419772 459.4417784306262Q1323.6196404336383 455.89946746405246 1330.704262366786 450.05184301129583L1330.704262366786 450.05184301129583L1334.7526177571558 454.1001984016658Q1338.6041780938274 458.34534884573435 1342.4557384304987 462.59049928980284L1342.4557384304987 462.59049928980284L1346.5040938208688 466.6388546801728Q1328.8768797252994 479.5992146451767 1316.7318135541893 483.95681940564435Q1304.5867473830795 488.2863105870122 1292.666589844768 483.8443650892452L1292.666589844768 483.8443650892452Q1275.2361708028973 477.15333326349486 1259.8580430353113 460.3695265409193L1259.8580430353113 460.3695265409193Q1250.7492434069788 450.2486380649944 1249.3435644519893 436.38864356879714Q1247.9097719178997 422.5005354935002 1252.885875418563 410.58037795518857Q1257.8338653401263 398.6321068377772 1268.264003186149 390.22614668693956Q1278.6941410321717 381.82018653610186 1291.03600225698 381.82018653610186L1291.03600225698 381.82018653610186Q1299.1327130377201 381.82018653610186 1315.0168852291022 392.2503243821245Q1330.9010574204844 402.6804622281472 1341.4436495829061 412.6045556503735L1341.4436495829061 412.6045556503735Q1341.2468545292077 413.19494081146917 1325.3345687587257 425.0307576124814Q1309.4503965673437 436.8946879925934 1293.4537700595622 448.42125542350794L1293.4537700595622 448.42125542350794ZM1353.1670120675192 384.0411592849854L1378.4692332573316 389.7201022631433L1404.3899531873394 452.66640586757643L1431.0978533321413 384.0411592849854L1456.400074521954 389.7201022631433L1418.7559921073328 486.68383657832413L1418.559197053634 486.68383657832413L1393.4537709175204 481.00489360016627L1393.256975863822 481.00489360016627L1353.1670120675192 384.0411592849854ZM1551.3396311419494 381.82018653610186L1551.3396311419494 381.82018653610186Q1557.608959281203 390.53539605703725 1553.673058207232 399.44740063167114Q1549.7371571332615 408.33129162720525 1537.78888601585 415.4159135603527L1537.78888601585 415.4159135603527Q1554.5726927384255 428.994772265552 1558.0306629677 432.6214239694251L1558.0306629677 432.6214239694251Q1567.336257649731 442.34872233795295 1556.9061198037082 458.34534884573435Q1546.4759819576855 474.3419753535157 1528.0615876473223 480.6113034927692Q1509.6471933369587 486.8806316320227 1490.0239151253043 476.7597431560977L1490.0239151253043 476.7597431560977Q1475.629762626211 467.0324447875699 1462.27581255381 448.42125542350794L1462.27581255381 448.42125542350794L1470.794227021047 442.74231244535Q1487.5780337436224 463.2089980299982 1508.8318995430648 461.7752054959089L1508.8318995430648 461.7752054959089Q1523.8164372032536 460.7631166483164 1532.3067380913908 449.8269343784975L1532.3067380913908 449.8269343784975Q1541.021947612326 438.300366947583 1534.1341207328771 425.95850572277453L1534.1341207328771 425.95850572277453Q1532.3067380913908 422.7254441262985 1529.2704715486132 419.68917758352103L1529.2704715486132 419.68917758352103Q1516.9286103238048 424.946416875182 1501.944072663616 425.53680203627766L1501.944072663616 425.53680203627766L1491.6263891339925 406.72881761851716Q1518.9527880189896 405.0982300307292 1528.483291333819 391.3506898509312L1528.483291333819 391.3506898509312Q1534.7526194730724 382.0169815898004 1529.4953801814115 373.5266807016634L1529.4953801814115 373.5266807016634Q1523.8164372032536 364.41788107333093 1511.0528722919482 365.8235600283205L1511.0528722919482 365.8235600283205Q1498.5142160134412 367.0605575087113 1484.7385622545435 378.5871249396258L1484.7385622545435 378.5871249396258L1470.794227021047 360.56632073665946Q1471.3846121821425 360.17273062926245 1472.8184047162317 359.35743683536845L1472.8184047162317 359.35743683536845Q1479.284527909184 355.30908144499847 1483.726473406951 353.08810869611494Q1488.196532483818 350.8671359472314 1495.8715395780607 347.83086940445395Q1503.5746602514039 344.7946028616765 1510.1532377607548 345.38498802277206Q1516.7318152701062 346.0034867629675 1521.5954644543701 350.0518421533375L1521.5954644543701 350.0518421533375Q1534.1341207328771 360.76311579035803 1551.3396311419494 381.82018653610186Z " fill="#f6b042" transform="matrix(0.5600292775722585,0,0,0.5600292775722585,0,69.21668912780287)"/></g></svg>